<mxfile host="Electron" agent="Mozilla/5.0 (Windows NT 10.0; Win64; x64) AppleWebKit/537.36 (KHTML, like Gecko) draw.io/24.7.17 Chrome/128.0.6613.36 Electron/32.0.1 Safari/537.36" version="24.7.17">
  <diagram name="Сторінка-1" id="Gc8V9vtOUWJF4PCc4Sw7">
    <mxGraphModel dx="1723" dy="613" grid="1" gridSize="10" guides="1" tooltips="1" connect="1" arrows="1" fold="1" page="1" pageScale="1" pageWidth="827" pageHeight="1169" math="0" shadow="0">
      <root>
        <mxCell id="0" />
        <mxCell id="1" parent="0" />
        <mxCell id="1LHbmsnF_B88C-UTx4Py-3" value="" style="edgeStyle=orthogonalEdgeStyle;rounded=0;orthogonalLoop=1;jettySize=auto;html=1;" parent="1" source="1LHbmsnF_B88C-UTx4Py-1" target="1LHbmsnF_B88C-UTx4Py-2" edge="1">
          <mxGeometry relative="1" as="geometry" />
        </mxCell>
        <mxCell id="1LHbmsnF_B88C-UTx4Py-1" value="&lt;font style=&quot;font-size: 20px;&quot;&gt;&lt;font style=&quot;font-size: 20px;&quot;&gt;star&lt;/font&gt;t&lt;/font&gt;" style="strokeWidth=2;html=1;shape=mxgraph.flowchart.start_1;whiteSpace=wrap;" parent="1" vertex="1">
          <mxGeometry x="290" y="10" width="100" height="60" as="geometry" />
        </mxCell>
        <mxCell id="1LHbmsnF_B88C-UTx4Py-7" value="" style="edgeStyle=orthogonalEdgeStyle;rounded=0;orthogonalLoop=1;jettySize=auto;html=1;" parent="1" source="1LHbmsnF_B88C-UTx4Py-2" target="1LHbmsnF_B88C-UTx4Py-6" edge="1">
          <mxGeometry relative="1" as="geometry" />
        </mxCell>
        <mxCell id="1LHbmsnF_B88C-UTx4Py-2" value="&lt;font style=&quot;font-size: 20px;&quot;&gt;int N&lt;/font&gt;" style="whiteSpace=wrap;html=1;strokeWidth=2;" parent="1" vertex="1">
          <mxGeometry x="280" y="150" width="120" height="60" as="geometry" />
        </mxCell>
        <mxCell id="1LHbmsnF_B88C-UTx4Py-9" value="" style="edgeStyle=orthogonalEdgeStyle;rounded=0;orthogonalLoop=1;jettySize=auto;html=1;" parent="1" source="1LHbmsnF_B88C-UTx4Py-6" target="1LHbmsnF_B88C-UTx4Py-8" edge="1">
          <mxGeometry relative="1" as="geometry" />
        </mxCell>
        <mxCell id="1LHbmsnF_B88C-UTx4Py-6" value="&lt;font style=&quot;font-size: 20px;&quot;&gt;cin &amp;gt;&amp;gt; N&lt;/font&gt;" style="shape=parallelogram;perimeter=parallelogramPerimeter;whiteSpace=wrap;html=1;fixedSize=1;strokeWidth=2;" parent="1" vertex="1">
          <mxGeometry x="280" y="290" width="120" height="60" as="geometry" />
        </mxCell>
        <mxCell id="1LHbmsnF_B88C-UTx4Py-14" value="" style="edgeStyle=orthogonalEdgeStyle;rounded=0;orthogonalLoop=1;jettySize=auto;html=1;" parent="1" source="1LHbmsnF_B88C-UTx4Py-8" target="1LHbmsnF_B88C-UTx4Py-13" edge="1">
          <mxGeometry relative="1" as="geometry" />
        </mxCell>
        <mxCell id="1LHbmsnF_B88C-UTx4Py-8" value="&lt;font style=&quot;font-size: 20px;&quot;&gt;int**a=new int*[N]&lt;/font&gt;" style="whiteSpace=wrap;html=1;strokeWidth=2;" parent="1" vertex="1">
          <mxGeometry x="240" y="430" width="200" height="60" as="geometry" />
        </mxCell>
        <mxCell id="1LHbmsnF_B88C-UTx4Py-16" value="" style="edgeStyle=orthogonalEdgeStyle;rounded=0;orthogonalLoop=1;jettySize=auto;html=1;" parent="1" source="1LHbmsnF_B88C-UTx4Py-13" target="1LHbmsnF_B88C-UTx4Py-15" edge="1">
          <mxGeometry relative="1" as="geometry" />
        </mxCell>
        <mxCell id="1LHbmsnF_B88C-UTx4Py-32" value="" style="edgeStyle=orthogonalEdgeStyle;rounded=0;orthogonalLoop=1;jettySize=auto;html=1;" parent="1" source="1LHbmsnF_B88C-UTx4Py-13" target="1LHbmsnF_B88C-UTx4Py-31" edge="1">
          <mxGeometry relative="1" as="geometry" />
        </mxCell>
        <mxCell id="1LHbmsnF_B88C-UTx4Py-13" value="&lt;font style=&quot;font-size: 20px;&quot;&gt;int i=0 ; i&amp;lt;N&lt;/font&gt;" style="rhombus;whiteSpace=wrap;html=1;strokeWidth=2;" parent="1" vertex="1">
          <mxGeometry x="240" y="560" width="200" height="80" as="geometry" />
        </mxCell>
        <mxCell id="1LHbmsnF_B88C-UTx4Py-18" value="" style="edgeStyle=orthogonalEdgeStyle;rounded=0;orthogonalLoop=1;jettySize=auto;html=1;" parent="1" source="1LHbmsnF_B88C-UTx4Py-15" target="1LHbmsnF_B88C-UTx4Py-17" edge="1">
          <mxGeometry relative="1" as="geometry" />
        </mxCell>
        <mxCell id="1LHbmsnF_B88C-UTx4Py-15" value="&lt;font style=&quot;font-size: 20px;&quot;&gt;a[i]=new int [N]&lt;/font&gt;" style="whiteSpace=wrap;html=1;strokeWidth=2;" parent="1" vertex="1">
          <mxGeometry x="265" y="730" width="150" height="60" as="geometry" />
        </mxCell>
        <mxCell id="1LHbmsnF_B88C-UTx4Py-20" value="" style="edgeStyle=orthogonalEdgeStyle;rounded=0;orthogonalLoop=1;jettySize=auto;html=1;" parent="1" source="1LHbmsnF_B88C-UTx4Py-17" target="1LHbmsnF_B88C-UTx4Py-19" edge="1">
          <mxGeometry relative="1" as="geometry" />
        </mxCell>
        <mxCell id="1LHbmsnF_B88C-UTx4Py-27" value="" style="edgeStyle=orthogonalEdgeStyle;rounded=0;orthogonalLoop=1;jettySize=auto;html=1;" parent="1" source="1LHbmsnF_B88C-UTx4Py-17" target="1LHbmsnF_B88C-UTx4Py-26" edge="1">
          <mxGeometry relative="1" as="geometry" />
        </mxCell>
        <mxCell id="1LHbmsnF_B88C-UTx4Py-17" value="&lt;font style=&quot;font-size: 20px;&quot;&gt;int j=0; j&amp;lt;N&lt;/font&gt;" style="rhombus;whiteSpace=wrap;html=1;strokeWidth=2;" parent="1" vertex="1">
          <mxGeometry x="245" y="860" width="190" height="80" as="geometry" />
        </mxCell>
        <mxCell id="1LHbmsnF_B88C-UTx4Py-22" value="" style="edgeStyle=orthogonalEdgeStyle;rounded=0;orthogonalLoop=1;jettySize=auto;html=1;" parent="1" source="1LHbmsnF_B88C-UTx4Py-19" target="1LHbmsnF_B88C-UTx4Py-21" edge="1">
          <mxGeometry relative="1" as="geometry" />
        </mxCell>
        <mxCell id="1LHbmsnF_B88C-UTx4Py-19" value="&lt;font style=&quot;font-size: 20px;&quot;&gt;cin&amp;gt;&amp;gt;a[i][j]&lt;/font&gt;" style="shape=parallelogram;perimeter=parallelogramPerimeter;whiteSpace=wrap;html=1;fixedSize=1;strokeWidth=2;" parent="1" vertex="1">
          <mxGeometry x="280" y="1030" width="120" height="60" as="geometry" />
        </mxCell>
        <mxCell id="1LHbmsnF_B88C-UTx4Py-25" style="edgeStyle=orthogonalEdgeStyle;rounded=0;orthogonalLoop=1;jettySize=auto;html=1;exitX=1;exitY=0.5;exitDx=0;exitDy=0;" parent="1" source="1LHbmsnF_B88C-UTx4Py-21" edge="1">
          <mxGeometry relative="1" as="geometry">
            <mxPoint x="340" y="820" as="targetPoint" />
            <Array as="points">
              <mxPoint x="510" y="1200" />
              <mxPoint x="510" y="820" />
            </Array>
          </mxGeometry>
        </mxCell>
        <mxCell id="1LHbmsnF_B88C-UTx4Py-21" value="&lt;font style=&quot;font-size: 20px;&quot;&gt;j++&lt;/font&gt;" style="whiteSpace=wrap;html=1;strokeWidth=2;" parent="1" vertex="1">
          <mxGeometry x="280" y="1170" width="120" height="60" as="geometry" />
        </mxCell>
        <mxCell id="1LHbmsnF_B88C-UTx4Py-28" style="edgeStyle=orthogonalEdgeStyle;rounded=0;orthogonalLoop=1;jettySize=auto;html=1;exitX=0;exitY=0.25;exitDx=0;exitDy=0;" parent="1" source="1LHbmsnF_B88C-UTx4Py-26" edge="1">
          <mxGeometry relative="1" as="geometry">
            <mxPoint x="340" y="510" as="targetPoint" />
            <Array as="points">
              <mxPoint x="-50" y="885" />
              <mxPoint x="-50" y="510" />
            </Array>
          </mxGeometry>
        </mxCell>
        <mxCell id="1LHbmsnF_B88C-UTx4Py-26" value="&lt;font style=&quot;font-size: 20px;&quot;&gt;i++&lt;/font&gt;" style="whiteSpace=wrap;html=1;strokeWidth=2;" parent="1" vertex="1">
          <mxGeometry x="10" y="870" width="120" height="60" as="geometry" />
        </mxCell>
        <mxCell id="1LHbmsnF_B88C-UTx4Py-34" value="" style="edgeStyle=orthogonalEdgeStyle;rounded=0;orthogonalLoop=1;jettySize=auto;html=1;" parent="1" source="1LHbmsnF_B88C-UTx4Py-31" target="1LHbmsnF_B88C-UTx4Py-33" edge="1">
          <mxGeometry relative="1" as="geometry" />
        </mxCell>
        <mxCell id="1LHbmsnF_B88C-UTx4Py-42" value="" style="edgeStyle=orthogonalEdgeStyle;rounded=0;orthogonalLoop=1;jettySize=auto;html=1;" parent="1" source="1LHbmsnF_B88C-UTx4Py-31" target="1LHbmsnF_B88C-UTx4Py-41" edge="1">
          <mxGeometry relative="1" as="geometry" />
        </mxCell>
        <mxCell id="1LHbmsnF_B88C-UTx4Py-31" value="&lt;font style=&quot;font-size: 20px;&quot;&gt;int i=0 ; i&amp;lt;N&lt;/font&gt;" style="rhombus;whiteSpace=wrap;html=1;strokeWidth=2;" parent="1" vertex="1">
          <mxGeometry x="670" y="740" width="200" height="80" as="geometry" />
        </mxCell>
        <mxCell id="1LHbmsnF_B88C-UTx4Py-37" value="" style="edgeStyle=orthogonalEdgeStyle;rounded=0;orthogonalLoop=1;jettySize=auto;html=1;" parent="1" source="1LHbmsnF_B88C-UTx4Py-33" target="1LHbmsnF_B88C-UTx4Py-36" edge="1">
          <mxGeometry relative="1" as="geometry" />
        </mxCell>
        <mxCell id="1LHbmsnF_B88C-UTx4Py-33" value="&lt;span style=&quot;font-family: Roboto, -apple-system, &amp;quot;apple color emoji&amp;quot;, BlinkMacSystemFont, &amp;quot;Segoe UI&amp;quot;, Roboto, Oxygen-Sans, Ubuntu, Cantarell, &amp;quot;Helvetica Neue&amp;quot;, sans-serif; text-align: start; white-space-collapse: preserve;&quot;&gt;&lt;font style=&quot;font-size: 20px;&quot;&gt;finding_max_element(a, i, N)&lt;/font&gt;&lt;/span&gt;" style="shape=process;whiteSpace=wrap;html=1;backgroundOutline=1;strokeWidth=2;" parent="1" vertex="1">
          <mxGeometry x="610" y="890" width="320" height="60" as="geometry" />
        </mxCell>
        <mxCell id="1LHbmsnF_B88C-UTx4Py-40" style="edgeStyle=orthogonalEdgeStyle;rounded=0;orthogonalLoop=1;jettySize=auto;html=1;exitX=0;exitY=0.25;exitDx=0;exitDy=0;" parent="1" source="1LHbmsnF_B88C-UTx4Py-36" edge="1">
          <mxGeometry relative="1" as="geometry">
            <mxPoint x="770" y="670" as="targetPoint" />
            <Array as="points">
              <mxPoint x="580" y="1045" />
              <mxPoint x="580" y="670" />
            </Array>
          </mxGeometry>
        </mxCell>
        <mxCell id="1LHbmsnF_B88C-UTx4Py-36" value="&lt;font style=&quot;font-size: 20px;&quot;&gt;i++&lt;/font&gt;" style="whiteSpace=wrap;html=1;strokeWidth=2;" parent="1" vertex="1">
          <mxGeometry x="710" y="1030" width="120" height="60" as="geometry" />
        </mxCell>
        <mxCell id="1LHbmsnF_B88C-UTx4Py-44" value="" style="edgeStyle=orthogonalEdgeStyle;rounded=0;orthogonalLoop=1;jettySize=auto;html=1;" parent="1" source="1LHbmsnF_B88C-UTx4Py-41" target="1LHbmsnF_B88C-UTx4Py-43" edge="1">
          <mxGeometry relative="1" as="geometry" />
        </mxCell>
        <mxCell id="1LHbmsnF_B88C-UTx4Py-41" value="&lt;span style=&quot;font-family: Roboto, -apple-system, &amp;quot;apple color emoji&amp;quot;, BlinkMacSystemFont, &amp;quot;Segoe UI&amp;quot;, Roboto, Oxygen-Sans, Ubuntu, Cantarell, &amp;quot;Helvetica Neue&amp;quot;, sans-serif; font-size: 20px; text-align: start; white-space-collapse: preserve;&quot;&gt;bool answer = check(a, N)&lt;/span&gt;" style="shape=process;whiteSpace=wrap;html=1;backgroundOutline=1;strokeWidth=2;" parent="1" vertex="1">
          <mxGeometry x="1073" y="890" width="336" height="60" as="geometry" />
        </mxCell>
        <mxCell id="1LHbmsnF_B88C-UTx4Py-46" value="" style="edgeStyle=orthogonalEdgeStyle;rounded=0;orthogonalLoop=1;jettySize=auto;html=1;" parent="1" source="1LHbmsnF_B88C-UTx4Py-43" target="1LHbmsnF_B88C-UTx4Py-45" edge="1">
          <mxGeometry relative="1" as="geometry" />
        </mxCell>
        <mxCell id="1LHbmsnF_B88C-UTx4Py-51" value="" style="edgeStyle=orthogonalEdgeStyle;rounded=0;orthogonalLoop=1;jettySize=auto;html=1;" parent="1" source="1LHbmsnF_B88C-UTx4Py-43" target="1LHbmsnF_B88C-UTx4Py-50" edge="1">
          <mxGeometry relative="1" as="geometry" />
        </mxCell>
        <mxCell id="1LHbmsnF_B88C-UTx4Py-43" value="&lt;font style=&quot;font-size: 20px;&quot;&gt;answer&lt;/font&gt;" style="rhombus;whiteSpace=wrap;html=1;strokeWidth=2;" parent="1" vertex="1">
          <mxGeometry x="1150" y="1020" width="180" height="80" as="geometry" />
        </mxCell>
        <mxCell id="1LHbmsnF_B88C-UTx4Py-53" value="" style="edgeStyle=orthogonalEdgeStyle;rounded=0;orthogonalLoop=1;jettySize=auto;html=1;exitX=0.5;exitY=1;exitDx=0;exitDy=0;" parent="1" source="1LHbmsnF_B88C-UTx4Py-45" target="1LHbmsnF_B88C-UTx4Py-52" edge="1">
          <mxGeometry relative="1" as="geometry" />
        </mxCell>
        <mxCell id="1LHbmsnF_B88C-UTx4Py-45" value="&lt;font style=&quot;font-size: 20px;&quot;&gt;cout&amp;lt;&amp;lt;&#39;&#39;No&#39;&#39;&lt;/font&gt;" style="shape=parallelogram;perimeter=parallelogramPerimeter;whiteSpace=wrap;html=1;fixedSize=1;strokeWidth=2;" parent="1" vertex="1">
          <mxGeometry x="919" y="1109" width="170" height="60" as="geometry" />
        </mxCell>
        <mxCell id="1LHbmsnF_B88C-UTx4Py-54" style="edgeStyle=orthogonalEdgeStyle;rounded=0;orthogonalLoop=1;jettySize=auto;html=1;exitX=0.5;exitY=1;exitDx=0;exitDy=0;entryX=0.5;entryY=0;entryDx=0;entryDy=0;" parent="1" source="1LHbmsnF_B88C-UTx4Py-50" target="1LHbmsnF_B88C-UTx4Py-52" edge="1">
          <mxGeometry relative="1" as="geometry" />
        </mxCell>
        <mxCell id="1LHbmsnF_B88C-UTx4Py-50" value="&lt;font style=&quot;font-size: 20px;&quot;&gt;cout&amp;lt;&amp;lt;&#39;&#39;yes&#39;&#39;&lt;/font&gt;" style="shape=parallelogram;perimeter=parallelogramPerimeter;whiteSpace=wrap;html=1;fixedSize=1;strokeWidth=2;" parent="1" vertex="1">
          <mxGeometry x="1430" y="1110" width="170" height="60" as="geometry" />
        </mxCell>
        <mxCell id="1LHbmsnF_B88C-UTx4Py-56" value="" style="edgeStyle=orthogonalEdgeStyle;rounded=0;orthogonalLoop=1;jettySize=auto;html=1;" parent="1" source="1LHbmsnF_B88C-UTx4Py-52" target="1LHbmsnF_B88C-UTx4Py-55" edge="1">
          <mxGeometry relative="1" as="geometry" />
        </mxCell>
        <mxCell id="1LHbmsnF_B88C-UTx4Py-61" value="" style="edgeStyle=orthogonalEdgeStyle;rounded=0;orthogonalLoop=1;jettySize=auto;html=1;" parent="1" source="1LHbmsnF_B88C-UTx4Py-52" target="1LHbmsnF_B88C-UTx4Py-60" edge="1">
          <mxGeometry relative="1" as="geometry" />
        </mxCell>
        <mxCell id="1LHbmsnF_B88C-UTx4Py-52" value="&lt;font style=&quot;font-size: 20px;&quot;&gt;int i=0; i&amp;lt;N&lt;/font&gt;" style="rhombus;whiteSpace=wrap;html=1;strokeWidth=2;" parent="1" vertex="1">
          <mxGeometry x="1140" y="1260" width="176" height="80" as="geometry" />
        </mxCell>
        <mxCell id="1LHbmsnF_B88C-UTx4Py-58" value="" style="edgeStyle=orthogonalEdgeStyle;rounded=0;orthogonalLoop=1;jettySize=auto;html=1;" parent="1" source="1LHbmsnF_B88C-UTx4Py-55" target="1LHbmsnF_B88C-UTx4Py-57" edge="1">
          <mxGeometry relative="1" as="geometry" />
        </mxCell>
        <mxCell id="1LHbmsnF_B88C-UTx4Py-55" value="&lt;font style=&quot;font-size: 20px;&quot;&gt;delete [] a[i]&lt;/font&gt;" style="whiteSpace=wrap;html=1;strokeWidth=2;" parent="1" vertex="1">
          <mxGeometry x="1163.75" y="1430" width="128.5" height="60" as="geometry" />
        </mxCell>
        <mxCell id="1LHbmsnF_B88C-UTx4Py-59" style="edgeStyle=orthogonalEdgeStyle;rounded=0;orthogonalLoop=1;jettySize=auto;html=1;exitX=0;exitY=0.25;exitDx=0;exitDy=0;" parent="1" source="1LHbmsnF_B88C-UTx4Py-57" edge="1">
          <mxGeometry relative="1" as="geometry">
            <mxPoint x="1230" y="1230" as="targetPoint" />
            <Array as="points">
              <mxPoint x="1090" y="1585" />
              <mxPoint x="1090" y="1230" />
            </Array>
          </mxGeometry>
        </mxCell>
        <mxCell id="1LHbmsnF_B88C-UTx4Py-57" value="&lt;font style=&quot;font-size: 20px;&quot;&gt;i++&lt;/font&gt;" style="whiteSpace=wrap;html=1;strokeWidth=2;" parent="1" vertex="1">
          <mxGeometry x="1168" y="1570" width="120" height="60" as="geometry" />
        </mxCell>
        <mxCell id="1LHbmsnF_B88C-UTx4Py-63" value="" style="edgeStyle=orthogonalEdgeStyle;rounded=0;orthogonalLoop=1;jettySize=auto;html=1;" parent="1" source="1LHbmsnF_B88C-UTx4Py-60" target="1LHbmsnF_B88C-UTx4Py-62" edge="1">
          <mxGeometry relative="1" as="geometry" />
        </mxCell>
        <mxCell id="1LHbmsnF_B88C-UTx4Py-60" value="&lt;font style=&quot;font-size: 20px;&quot;&gt;delete [&lt;font style=&quot;font-size: 20px;&quot;&gt;] a&lt;/font&gt;&lt;/font&gt;" style="whiteSpace=wrap;html=1;strokeWidth=2;" parent="1" vertex="1">
          <mxGeometry x="1460" y="1370" width="120" height="60" as="geometry" />
        </mxCell>
        <mxCell id="1LHbmsnF_B88C-UTx4Py-62" value="&lt;font style=&quot;font-size: 20px;&quot;&gt;End&lt;/font&gt;" style="ellipse;whiteSpace=wrap;html=1;strokeWidth=2;" parent="1" vertex="1">
          <mxGeometry x="1430" y="1500" width="180" height="60" as="geometry" />
        </mxCell>
        <mxCell id="1LHbmsnF_B88C-UTx4Py-66" value="" style="edgeStyle=orthogonalEdgeStyle;rounded=0;orthogonalLoop=1;jettySize=auto;html=1;" parent="1" source="1LHbmsnF_B88C-UTx4Py-64" target="1LHbmsnF_B88C-UTx4Py-65" edge="1">
          <mxGeometry relative="1" as="geometry" />
        </mxCell>
        <mxCell id="1LHbmsnF_B88C-UTx4Py-64" value="&lt;span style=&quot;font-family: Roboto, -apple-system, &amp;quot;apple color emoji&amp;quot;, BlinkMacSystemFont, &amp;quot;Segoe UI&amp;quot;, Roboto, Oxygen-Sans, Ubuntu, Cantarell, &amp;quot;Helvetica Neue&amp;quot;, sans-serif; font-size: 20px; text-align: start; white-space-collapse: preserve;&quot;&gt;finding_max_element(int**a,int n, int N)&lt;/span&gt;" style="strokeWidth=2;html=1;shape=mxgraph.flowchart.start_1;whiteSpace=wrap;" parent="1" vertex="1">
          <mxGeometry x="1670" y="20" width="365" height="90" as="geometry" />
        </mxCell>
        <mxCell id="1LHbmsnF_B88C-UTx4Py-71" value="" style="edgeStyle=orthogonalEdgeStyle;rounded=0;orthogonalLoop=1;jettySize=auto;html=1;" parent="1" source="1LHbmsnF_B88C-UTx4Py-65" target="1LHbmsnF_B88C-UTx4Py-70" edge="1">
          <mxGeometry relative="1" as="geometry" />
        </mxCell>
        <mxCell id="1LHbmsnF_B88C-UTx4Py-65" value="&lt;font style=&quot;font-size: 20px;&quot;&gt;int m_i = n&lt;/font&gt;" style="whiteSpace=wrap;html=1;strokeWidth=2;" parent="1" vertex="1">
          <mxGeometry x="1778.13" y="170" width="148.75" height="50" as="geometry" />
        </mxCell>
        <mxCell id="1LHbmsnF_B88C-UTx4Py-73" value="" style="edgeStyle=orthogonalEdgeStyle;rounded=0;orthogonalLoop=1;jettySize=auto;html=1;" parent="1" source="1LHbmsnF_B88C-UTx4Py-70" target="1LHbmsnF_B88C-UTx4Py-72" edge="1">
          <mxGeometry relative="1" as="geometry" />
        </mxCell>
        <mxCell id="1LHbmsnF_B88C-UTx4Py-70" value="&lt;font style=&quot;font-size: 20px;&quot;&gt;int m_j = N - 1 -n&lt;/font&gt;" style="whiteSpace=wrap;html=1;strokeWidth=2;" parent="1" vertex="1">
          <mxGeometry x="1753.29" y="270" width="198.43" height="50" as="geometry" />
        </mxCell>
        <mxCell id="1LHbmsnF_B88C-UTx4Py-75" value="" style="edgeStyle=orthogonalEdgeStyle;rounded=0;orthogonalLoop=1;jettySize=auto;html=1;" parent="1" source="1LHbmsnF_B88C-UTx4Py-72" target="1LHbmsnF_B88C-UTx4Py-74" edge="1">
          <mxGeometry relative="1" as="geometry" />
        </mxCell>
        <mxCell id="1LHbmsnF_B88C-UTx4Py-72" value="&lt;font style=&quot;font-size: 20px;&quot;&gt;int m_e =a[m_i][m_j]&lt;/font&gt;" style="whiteSpace=wrap;html=1;strokeWidth=2;" parent="1" vertex="1">
          <mxGeometry x="1757" y="435" width="191" height="50" as="geometry" />
        </mxCell>
        <mxCell id="1LHbmsnF_B88C-UTx4Py-77" value="" style="edgeStyle=orthogonalEdgeStyle;rounded=0;orthogonalLoop=1;jettySize=auto;html=1;" parent="1" source="1LHbmsnF_B88C-UTx4Py-74" target="1LHbmsnF_B88C-UTx4Py-76" edge="1">
          <mxGeometry relative="1" as="geometry" />
        </mxCell>
        <mxCell id="IHCk2sWZcFlvWdBVn77H-22" value="" style="edgeStyle=orthogonalEdgeStyle;rounded=0;orthogonalLoop=1;jettySize=auto;html=1;" edge="1" parent="1" source="1LHbmsnF_B88C-UTx4Py-74" target="IHCk2sWZcFlvWdBVn77H-21">
          <mxGeometry relative="1" as="geometry" />
        </mxCell>
        <mxCell id="1LHbmsnF_B88C-UTx4Py-74" value="&lt;font style=&quot;font-size: 20px;&quot;&gt;i=n; i&amp;lt;N&lt;/font&gt;" style="rhombus;whiteSpace=wrap;html=1;strokeWidth=2;" parent="1" vertex="1">
          <mxGeometry x="1772.5" y="550" width="160" height="70" as="geometry" />
        </mxCell>
        <mxCell id="IHCk2sWZcFlvWdBVn77H-4" value="" style="edgeStyle=orthogonalEdgeStyle;rounded=0;orthogonalLoop=1;jettySize=auto;html=1;" edge="1" parent="1" source="1LHbmsnF_B88C-UTx4Py-76" target="IHCk2sWZcFlvWdBVn77H-3">
          <mxGeometry relative="1" as="geometry" />
        </mxCell>
        <mxCell id="IHCk2sWZcFlvWdBVn77H-19" value="" style="edgeStyle=orthogonalEdgeStyle;rounded=0;orthogonalLoop=1;jettySize=auto;html=1;" edge="1" parent="1" source="1LHbmsnF_B88C-UTx4Py-76" target="IHCk2sWZcFlvWdBVn77H-18">
          <mxGeometry relative="1" as="geometry" />
        </mxCell>
        <mxCell id="1LHbmsnF_B88C-UTx4Py-76" value="&lt;font style=&quot;font-size: 20px;&quot;&gt;j=N-1n; j&amp;lt;N&lt;/font&gt;" style="rhombus;whiteSpace=wrap;html=1;strokeWidth=2;" parent="1" vertex="1">
          <mxGeometry x="1762.88" y="680" width="179.25" height="70" as="geometry" />
        </mxCell>
        <mxCell id="IHCk2sWZcFlvWdBVn77H-6" value="" style="edgeStyle=orthogonalEdgeStyle;rounded=0;orthogonalLoop=1;jettySize=auto;html=1;" edge="1" parent="1" source="IHCk2sWZcFlvWdBVn77H-3" target="IHCk2sWZcFlvWdBVn77H-5">
          <mxGeometry relative="1" as="geometry" />
        </mxCell>
        <mxCell id="IHCk2sWZcFlvWdBVn77H-16" style="edgeStyle=orthogonalEdgeStyle;rounded=0;orthogonalLoop=1;jettySize=auto;html=1;exitX=1;exitY=0.5;exitDx=0;exitDy=0;" edge="1" parent="1" source="IHCk2sWZcFlvWdBVn77H-3">
          <mxGeometry relative="1" as="geometry">
            <mxPoint x="2020" y="865" as="targetPoint" />
          </mxGeometry>
        </mxCell>
        <mxCell id="IHCk2sWZcFlvWdBVn77H-3" value="&lt;span style=&quot;font-family: Roboto, -apple-system, &amp;quot;apple color emoji&amp;quot;, BlinkMacSystemFont, &amp;quot;Segoe UI&amp;quot;, Roboto, Oxygen-Sans, Ubuntu, Cantarell, &amp;quot;Helvetica Neue&amp;quot;, sans-serif; text-align: start; caret-color: rgb(51, 144, 236); white-space-collapse: preserve; background-color: rgb(255, 255, 255);&quot;&gt;&lt;font style=&quot;font-size: 20px;&quot;&gt;a[i][j] &amp;gt; m_e&lt;/font&gt;&lt;/span&gt;" style="rhombus;whiteSpace=wrap;html=1;strokeWidth=2;" vertex="1" parent="1">
          <mxGeometry x="1762.88" y="830" width="179.25" height="70" as="geometry" />
        </mxCell>
        <mxCell id="IHCk2sWZcFlvWdBVn77H-8" value="" style="edgeStyle=orthogonalEdgeStyle;rounded=0;orthogonalLoop=1;jettySize=auto;html=1;" edge="1" parent="1" source="IHCk2sWZcFlvWdBVn77H-5" target="IHCk2sWZcFlvWdBVn77H-7">
          <mxGeometry relative="1" as="geometry" />
        </mxCell>
        <mxCell id="IHCk2sWZcFlvWdBVn77H-5" value="&lt;div style=&quot;font-family: Consolas, &amp;quot;Courier New&amp;quot;, monospace; font-size: 20px; line-height: 19px; white-space: pre;&quot;&gt;&lt;div style=&quot;color: rgb(204, 204, 204); background-color: rgb(31, 31, 31);&quot;&gt;&lt;/div&gt;&lt;div style=&quot;&quot;&gt;&amp;nbsp;m_e = a[i][j]&lt;/div&gt;&lt;/div&gt;" style="whiteSpace=wrap;html=1;strokeWidth=2;" vertex="1" parent="1">
          <mxGeometry x="1764.51" y="985" width="177.49" height="60" as="geometry" />
        </mxCell>
        <mxCell id="IHCk2sWZcFlvWdBVn77H-10" value="" style="edgeStyle=orthogonalEdgeStyle;rounded=0;orthogonalLoop=1;jettySize=auto;html=1;" edge="1" parent="1" source="IHCk2sWZcFlvWdBVn77H-7" target="IHCk2sWZcFlvWdBVn77H-9">
          <mxGeometry relative="1" as="geometry" />
        </mxCell>
        <mxCell id="IHCk2sWZcFlvWdBVn77H-7" value="&lt;div style=&quot;font-family: Consolas, &amp;quot;Courier New&amp;quot;, monospace; font-size: 20px; line-height: 19px; white-space: pre;&quot;&gt;&lt;div style=&quot;color: rgb(204, 204, 204); background-color: rgb(31, 31, 31);&quot;&gt;&lt;/div&gt;&lt;div style=&quot;&quot;&gt;&lt;div&gt;m_i = i&lt;/div&gt;&lt;/div&gt;&lt;/div&gt;" style="whiteSpace=wrap;html=1;strokeWidth=2;" vertex="1" parent="1">
          <mxGeometry x="1764.51" y="1125" width="177.49" height="35" as="geometry" />
        </mxCell>
        <mxCell id="IHCk2sWZcFlvWdBVn77H-11" style="edgeStyle=orthogonalEdgeStyle;rounded=0;orthogonalLoop=1;jettySize=auto;html=1;exitX=1;exitY=0.5;exitDx=0;exitDy=0;" edge="1" parent="1" source="IHCk2sWZcFlvWdBVn77H-9" target="IHCk2sWZcFlvWdBVn77H-14">
          <mxGeometry relative="1" as="geometry">
            <mxPoint x="1670" y="750" as="targetPoint" />
          </mxGeometry>
        </mxCell>
        <mxCell id="IHCk2sWZcFlvWdBVn77H-9" value="&lt;div style=&quot;font-family: Consolas, &amp;quot;Courier New&amp;quot;, monospace; font-size: 20px; line-height: 19px; white-space: pre;&quot;&gt;&lt;div style=&quot;color: rgb(204, 204, 204); background-color: rgb(31, 31, 31);&quot;&gt;&lt;/div&gt;&lt;div style=&quot;&quot;&gt;&lt;span style=&quot;background-color: initial;&quot;&gt;m_j&lt;/span&gt;&lt;span style=&quot;background-color: initial;&quot;&gt; &lt;/span&gt;&lt;span style=&quot;background-color: initial;&quot;&gt;=&lt;/span&gt;&lt;span style=&quot;background-color: initial;&quot;&gt; &lt;/span&gt;&lt;span style=&quot;background-color: initial;&quot;&gt;j&lt;/span&gt;&lt;br&gt;&lt;/div&gt;&lt;/div&gt;" style="whiteSpace=wrap;html=1;strokeWidth=2;" vertex="1" parent="1">
          <mxGeometry x="1764.5100000000002" y="1240" width="177.49" height="35" as="geometry" />
        </mxCell>
        <mxCell id="IHCk2sWZcFlvWdBVn77H-15" style="edgeStyle=orthogonalEdgeStyle;rounded=0;orthogonalLoop=1;jettySize=auto;html=1;exitX=0.5;exitY=0;exitDx=0;exitDy=0;" edge="1" parent="1" source="IHCk2sWZcFlvWdBVn77H-14">
          <mxGeometry relative="1" as="geometry">
            <mxPoint x="1850" y="650" as="targetPoint" />
            <Array as="points">
              <mxPoint x="2020" y="650" />
            </Array>
          </mxGeometry>
        </mxCell>
        <mxCell id="IHCk2sWZcFlvWdBVn77H-14" value="&lt;font style=&quot;font-size: 20px;&quot;&gt;j++&lt;/font&gt;" style="rounded=0;whiteSpace=wrap;html=1;" vertex="1" parent="1">
          <mxGeometry x="1960" y="780" width="120" height="30" as="geometry" />
        </mxCell>
        <mxCell id="IHCk2sWZcFlvWdBVn77H-20" style="edgeStyle=orthogonalEdgeStyle;rounded=0;orthogonalLoop=1;jettySize=auto;html=1;exitX=0.5;exitY=0;exitDx=0;exitDy=0;" edge="1" parent="1" source="IHCk2sWZcFlvWdBVn77H-18">
          <mxGeometry relative="1" as="geometry">
            <mxPoint x="1862" y="520" as="targetPoint" />
            <Array as="points">
              <mxPoint x="1593" y="520" />
            </Array>
          </mxGeometry>
        </mxCell>
        <mxCell id="IHCk2sWZcFlvWdBVn77H-18" value="&lt;span style=&quot;font-size: 20px;&quot;&gt;i++&lt;/span&gt;" style="whiteSpace=wrap;html=1;strokeWidth=2;" vertex="1" parent="1">
          <mxGeometry x="1533.255" y="685" width="120" height="60" as="geometry" />
        </mxCell>
        <mxCell id="IHCk2sWZcFlvWdBVn77H-30" value="" style="edgeStyle=orthogonalEdgeStyle;rounded=0;orthogonalLoop=1;jettySize=auto;html=1;" edge="1" parent="1" source="IHCk2sWZcFlvWdBVn77H-21" target="IHCk2sWZcFlvWdBVn77H-29">
          <mxGeometry relative="1" as="geometry" />
        </mxCell>
        <mxCell id="IHCk2sWZcFlvWdBVn77H-39" value="" style="edgeStyle=orthogonalEdgeStyle;rounded=0;orthogonalLoop=1;jettySize=auto;html=1;" edge="1" parent="1" source="IHCk2sWZcFlvWdBVn77H-21" target="IHCk2sWZcFlvWdBVn77H-38">
          <mxGeometry relative="1" as="geometry" />
        </mxCell>
        <mxCell id="IHCk2sWZcFlvWdBVn77H-21" value="&lt;font style=&quot;font-size: 20px;&quot;&gt;j=n; j&amp;lt;N&lt;/font&gt;" style="rhombus;whiteSpace=wrap;html=1;strokeWidth=2;" vertex="1" parent="1">
          <mxGeometry x="2250" y="720" width="160" height="70" as="geometry" />
        </mxCell>
        <mxCell id="IHCk2sWZcFlvWdBVn77H-32" value="" style="edgeStyle=orthogonalEdgeStyle;rounded=0;orthogonalLoop=1;jettySize=auto;html=1;" edge="1" parent="1" source="IHCk2sWZcFlvWdBVn77H-29" target="IHCk2sWZcFlvWdBVn77H-31">
          <mxGeometry relative="1" as="geometry" />
        </mxCell>
        <mxCell id="IHCk2sWZcFlvWdBVn77H-29" value="&lt;span style=&quot;color: rgb(0, 0, 0); font-family: Roboto, -apple-system, &amp;quot;apple color emoji&amp;quot;, BlinkMacSystemFont, &amp;quot;Segoe UI&amp;quot;, Roboto, Oxygen-Sans, Ubuntu, Cantarell, &amp;quot;Helvetica Neue&amp;quot;, sans-serif; font-style: normal; font-variant-ligatures: normal; font-variant-caps: normal; font-weight: 400; letter-spacing: normal; orphans: 2; text-align: start; text-indent: 0px; text-transform: none; widows: 2; word-spacing: 0px; -webkit-text-stroke-width: 0px; caret-color: rgb(51, 144, 236); white-space: pre-wrap; background-color: rgb(251, 251, 251); text-decoration-thickness: initial; text-decoration-style: initial; text-decoration-color: initial; float: none; display: inline !important;&quot;&gt;&lt;font style=&quot;font-size: 20px;&quot;&gt;int temp = a[n][j]&lt;/font&gt;&lt;/span&gt;" style="whiteSpace=wrap;html=1;strokeWidth=2;" vertex="1" parent="1">
          <mxGeometry x="2235" y="875" width="190" height="60" as="geometry" />
        </mxCell>
        <mxCell id="IHCk2sWZcFlvWdBVn77H-34" value="" style="edgeStyle=orthogonalEdgeStyle;rounded=0;orthogonalLoop=1;jettySize=auto;html=1;" edge="1" parent="1" source="IHCk2sWZcFlvWdBVn77H-31" target="IHCk2sWZcFlvWdBVn77H-33">
          <mxGeometry relative="1" as="geometry" />
        </mxCell>
        <mxCell id="IHCk2sWZcFlvWdBVn77H-31" value="&lt;div style=&quot;font-family: Consolas, &amp;quot;Courier New&amp;quot;, monospace; font-weight: normal; font-size: 20px; line-height: 19px; white-space: pre;&quot;&gt;&lt;div style=&quot;&quot;&gt;a[n][j] = a[m_i][j]&lt;/div&gt;&lt;/div&gt;" style="whiteSpace=wrap;html=1;strokeWidth=2;" vertex="1" parent="1">
          <mxGeometry x="2197" y="1015" width="265" height="60" as="geometry" />
        </mxCell>
        <mxCell id="IHCk2sWZcFlvWdBVn77H-36" value="" style="edgeStyle=orthogonalEdgeStyle;rounded=0;orthogonalLoop=1;jettySize=auto;html=1;" edge="1" parent="1" source="IHCk2sWZcFlvWdBVn77H-33" target="IHCk2sWZcFlvWdBVn77H-35">
          <mxGeometry relative="1" as="geometry" />
        </mxCell>
        <mxCell id="IHCk2sWZcFlvWdBVn77H-33" value="&lt;div style=&quot;font-family: Consolas, &amp;quot;Courier New&amp;quot;, monospace; font-weight: normal; font-size: 20px; line-height: 19px; white-space: pre;&quot;&gt;&lt;div style=&quot;&quot;&gt;a[m_i][j]=temp&lt;/div&gt;&lt;/div&gt;" style="whiteSpace=wrap;html=1;strokeWidth=2;" vertex="1" parent="1">
          <mxGeometry x="2197" y="1155" width="265" height="60" as="geometry" />
        </mxCell>
        <mxCell id="IHCk2sWZcFlvWdBVn77H-37" style="edgeStyle=orthogonalEdgeStyle;rounded=0;orthogonalLoop=1;jettySize=auto;html=1;exitX=0;exitY=0.5;exitDx=0;exitDy=0;" edge="1" parent="1" source="IHCk2sWZcFlvWdBVn77H-35">
          <mxGeometry relative="1" as="geometry">
            <mxPoint x="2330" y="680" as="targetPoint" />
            <Array as="points">
              <mxPoint x="2180" y="1325" />
              <mxPoint x="2180" y="680" />
            </Array>
          </mxGeometry>
        </mxCell>
        <mxCell id="IHCk2sWZcFlvWdBVn77H-35" value="&lt;div style=&quot;font-family: Consolas, &amp;quot;Courier New&amp;quot;, monospace; font-weight: normal; font-size: 20px; line-height: 19px; white-space: pre;&quot;&gt;&lt;div style=&quot;&quot;&gt;j++&lt;/div&gt;&lt;/div&gt;" style="whiteSpace=wrap;html=1;strokeWidth=2;" vertex="1" parent="1">
          <mxGeometry x="2289" y="1295" width="82" height="60" as="geometry" />
        </mxCell>
        <mxCell id="IHCk2sWZcFlvWdBVn77H-43" value="" style="edgeStyle=orthogonalEdgeStyle;rounded=0;orthogonalLoop=1;jettySize=auto;html=1;" edge="1" parent="1" source="IHCk2sWZcFlvWdBVn77H-38" target="IHCk2sWZcFlvWdBVn77H-42">
          <mxGeometry relative="1" as="geometry" />
        </mxCell>
        <mxCell id="IHCk2sWZcFlvWdBVn77H-53" value="" style="edgeStyle=orthogonalEdgeStyle;rounded=0;orthogonalLoop=1;jettySize=auto;html=1;" edge="1" parent="1" source="IHCk2sWZcFlvWdBVn77H-38" target="IHCk2sWZcFlvWdBVn77H-52">
          <mxGeometry relative="1" as="geometry" />
        </mxCell>
        <mxCell id="IHCk2sWZcFlvWdBVn77H-38" value="&lt;font style=&quot;font-size: 20px;&quot;&gt;i=n; i&amp;lt;N&lt;/font&gt;" style="rhombus;whiteSpace=wrap;html=1;strokeWidth=2;" vertex="1" parent="1">
          <mxGeometry x="2640" y="865" width="160" height="70" as="geometry" />
        </mxCell>
        <mxCell id="IHCk2sWZcFlvWdBVn77H-45" value="" style="edgeStyle=orthogonalEdgeStyle;rounded=0;orthogonalLoop=1;jettySize=auto;html=1;" edge="1" parent="1" source="IHCk2sWZcFlvWdBVn77H-42" target="IHCk2sWZcFlvWdBVn77H-44">
          <mxGeometry relative="1" as="geometry" />
        </mxCell>
        <mxCell id="IHCk2sWZcFlvWdBVn77H-42" value="&lt;span style=&quot;font-family: Roboto, -apple-system, &amp;quot;apple color emoji&amp;quot;, BlinkMacSystemFont, &amp;quot;Segoe UI&amp;quot;, Roboto, Oxygen-Sans, Ubuntu, Cantarell, &amp;quot;Helvetica Neue&amp;quot;, sans-serif; font-size: 20px; text-align: start; caret-color: rgb(51, 144, 236); white-space-collapse: preserve;&quot;&gt;int temp = a[i][N-1-n]&lt;/span&gt;" style="whiteSpace=wrap;html=1;strokeWidth=2;" vertex="1" parent="1">
          <mxGeometry x="2585" y="1020" width="270" height="60" as="geometry" />
        </mxCell>
        <mxCell id="IHCk2sWZcFlvWdBVn77H-47" value="" style="edgeStyle=orthogonalEdgeStyle;rounded=0;orthogonalLoop=1;jettySize=auto;html=1;" edge="1" parent="1" source="IHCk2sWZcFlvWdBVn77H-44" target="IHCk2sWZcFlvWdBVn77H-46">
          <mxGeometry relative="1" as="geometry" />
        </mxCell>
        <mxCell id="IHCk2sWZcFlvWdBVn77H-44" value="&lt;span style=&quot;font-family: Roboto, -apple-system, &amp;quot;apple color emoji&amp;quot;, BlinkMacSystemFont, &amp;quot;Segoe UI&amp;quot;, Roboto, Oxygen-Sans, Ubuntu, Cantarell, &amp;quot;Helvetica Neue&amp;quot;, sans-serif; font-size: 20px; text-align: start; caret-color: rgb(51, 144, 236); white-space-collapse: preserve;&quot;&gt; a[i][N-1-n]=a[i][m_i]&lt;/span&gt;" style="whiteSpace=wrap;html=1;strokeWidth=2;" vertex="1" parent="1">
          <mxGeometry x="2625" y="1160" width="190" height="60" as="geometry" />
        </mxCell>
        <mxCell id="IHCk2sWZcFlvWdBVn77H-50" value="" style="edgeStyle=orthogonalEdgeStyle;rounded=0;orthogonalLoop=1;jettySize=auto;html=1;" edge="1" parent="1" source="IHCk2sWZcFlvWdBVn77H-46" target="IHCk2sWZcFlvWdBVn77H-49">
          <mxGeometry relative="1" as="geometry" />
        </mxCell>
        <mxCell id="IHCk2sWZcFlvWdBVn77H-46" value="&lt;span style=&quot;font-family: Roboto, -apple-system, &amp;quot;apple color emoji&amp;quot;, BlinkMacSystemFont, &amp;quot;Segoe UI&amp;quot;, Roboto, Oxygen-Sans, Ubuntu, Cantarell, &amp;quot;Helvetica Neue&amp;quot;, sans-serif; font-size: 20px; text-align: start; caret-color: rgb(51, 144, 236); white-space-collapse: preserve;&quot;&gt;a[i][m_i]=temp&lt;/span&gt;" style="whiteSpace=wrap;html=1;strokeWidth=2;" vertex="1" parent="1">
          <mxGeometry x="2625" y="1300" width="190" height="60" as="geometry" />
        </mxCell>
        <mxCell id="IHCk2sWZcFlvWdBVn77H-51" style="edgeStyle=orthogonalEdgeStyle;rounded=0;orthogonalLoop=1;jettySize=auto;html=1;exitX=0;exitY=0.5;exitDx=0;exitDy=0;" edge="1" parent="1" source="IHCk2sWZcFlvWdBVn77H-49">
          <mxGeometry relative="1" as="geometry">
            <mxPoint x="2720" y="820" as="targetPoint" />
            <Array as="points">
              <mxPoint x="2540" y="1470" />
              <mxPoint x="2540" y="820" />
            </Array>
          </mxGeometry>
        </mxCell>
        <mxCell id="IHCk2sWZcFlvWdBVn77H-49" value="&lt;span style=&quot;font-family: Roboto, -apple-system, &amp;quot;apple color emoji&amp;quot;, BlinkMacSystemFont, &amp;quot;Segoe UI&amp;quot;, Roboto, Oxygen-Sans, Ubuntu, Cantarell, &amp;quot;Helvetica Neue&amp;quot;, sans-serif; font-size: 20px; text-align: start; caret-color: rgb(51, 144, 236); white-space-collapse: preserve;&quot;&gt;i++&lt;/span&gt;" style="whiteSpace=wrap;html=1;strokeWidth=2;" vertex="1" parent="1">
          <mxGeometry x="2625" y="1440" width="190" height="60" as="geometry" />
        </mxCell>
        <mxCell id="IHCk2sWZcFlvWdBVn77H-52" value="&lt;font style=&quot;font-size: 20px;&quot;&gt;return&lt;/font&gt;" style="ellipse;whiteSpace=wrap;html=1;strokeWidth=2;" vertex="1" parent="1">
          <mxGeometry x="2920" y="875" width="150" height="50" as="geometry" />
        </mxCell>
        <mxCell id="IHCk2sWZcFlvWdBVn77H-58" value="" style="edgeStyle=orthogonalEdgeStyle;rounded=0;orthogonalLoop=1;jettySize=auto;html=1;" edge="1" parent="1" source="IHCk2sWZcFlvWdBVn77H-54" target="IHCk2sWZcFlvWdBVn77H-57">
          <mxGeometry relative="1" as="geometry" />
        </mxCell>
        <mxCell id="IHCk2sWZcFlvWdBVn77H-54" value="&lt;font style=&quot;font-size: 20px;&quot;&gt;check(int** a, N)&lt;/font&gt;" style="ellipse;whiteSpace=wrap;html=1;" vertex="1" parent="1">
          <mxGeometry x="2570" y="40" width="160" height="80" as="geometry" />
        </mxCell>
        <mxCell id="IHCk2sWZcFlvWdBVn77H-60" value="" style="edgeStyle=orthogonalEdgeStyle;rounded=0;orthogonalLoop=1;jettySize=auto;html=1;" edge="1" parent="1" source="IHCk2sWZcFlvWdBVn77H-57" target="IHCk2sWZcFlvWdBVn77H-59">
          <mxGeometry relative="1" as="geometry" />
        </mxCell>
        <mxCell id="IHCk2sWZcFlvWdBVn77H-69" value="" style="edgeStyle=orthogonalEdgeStyle;rounded=0;orthogonalLoop=1;jettySize=auto;html=1;" edge="1" parent="1" source="IHCk2sWZcFlvWdBVn77H-57" target="IHCk2sWZcFlvWdBVn77H-68">
          <mxGeometry relative="1" as="geometry" />
        </mxCell>
        <mxCell id="IHCk2sWZcFlvWdBVn77H-57" value="&lt;font style=&quot;font-size: 20px;&quot;&gt;i=1; i&amp;lt;N&lt;/font&gt;" style="rhombus;whiteSpace=wrap;html=1;" vertex="1" parent="1">
          <mxGeometry x="2586" y="200" width="130" height="100" as="geometry" />
        </mxCell>
        <mxCell id="IHCk2sWZcFlvWdBVn77H-64" value="" style="edgeStyle=orthogonalEdgeStyle;rounded=0;orthogonalLoop=1;jettySize=auto;html=1;" edge="1" parent="1" source="IHCk2sWZcFlvWdBVn77H-59" target="IHCk2sWZcFlvWdBVn77H-63">
          <mxGeometry relative="1" as="geometry" />
        </mxCell>
        <mxCell id="IHCk2sWZcFlvWdBVn77H-66" value="" style="edgeStyle=orthogonalEdgeStyle;rounded=0;orthogonalLoop=1;jettySize=auto;html=1;exitX=0;exitY=0.5;exitDx=0;exitDy=0;" edge="1" parent="1" source="IHCk2sWZcFlvWdBVn77H-59" target="IHCk2sWZcFlvWdBVn77H-65">
          <mxGeometry relative="1" as="geometry" />
        </mxCell>
        <mxCell id="IHCk2sWZcFlvWdBVn77H-59" value="&lt;div style=&quot;font-family: Consolas, &amp;quot;Courier New&amp;quot;, monospace; font-size: 20px; line-height: 19px; white-space: pre;&quot;&gt;a[i-1][N-i]&amp;lt;=&lt;span style=&quot;background-color: initial;&quot;&gt;a[i][N-i-1]&lt;/span&gt;&lt;/div&gt;" style="rhombus;whiteSpace=wrap;html=1;" vertex="1" parent="1">
          <mxGeometry x="2488" y="380" width="326" height="100" as="geometry" />
        </mxCell>
        <mxCell id="IHCk2sWZcFlvWdBVn77H-63" value="&lt;font style=&quot;font-size: 20px;&quot;&gt;return 0&lt;/font&gt;" style="ellipse;whiteSpace=wrap;html=1;" vertex="1" parent="1">
          <mxGeometry x="2532" y="570" width="239" height="50" as="geometry" />
        </mxCell>
        <mxCell id="IHCk2sWZcFlvWdBVn77H-67" style="edgeStyle=orthogonalEdgeStyle;rounded=0;orthogonalLoop=1;jettySize=auto;html=1;exitX=0.5;exitY=0;exitDx=0;exitDy=0;" edge="1" parent="1" source="IHCk2sWZcFlvWdBVn77H-65">
          <mxGeometry relative="1" as="geometry">
            <mxPoint x="2650" y="170" as="targetPoint" />
            <Array as="points">
              <mxPoint x="2431" y="170" />
            </Array>
          </mxGeometry>
        </mxCell>
        <mxCell id="IHCk2sWZcFlvWdBVn77H-65" value="&lt;font style=&quot;font-size: 20px;&quot;&gt;i++&lt;/font&gt;" style="whiteSpace=wrap;html=1;" vertex="1" parent="1">
          <mxGeometry x="2371" y="269" width="120" height="60" as="geometry" />
        </mxCell>
        <mxCell id="IHCk2sWZcFlvWdBVn77H-68" value="&lt;font style=&quot;font-size: 20px;&quot;&gt;return 1&lt;/font&gt;" style="ellipse;whiteSpace=wrap;html=1;" vertex="1" parent="1">
          <mxGeometry x="2830" y="320" width="149" height="80" as="geometry" />
        </mxCell>
      </root>
    </mxGraphModel>
  </diagram>
</mxfile>
